#!OML:ASF H:\Dans Jumps\Project 1\Capture day 1\Session 1\subject.ASF
:FULLY-SPECIFIED
:DEGREES
107
root 0.556559 17.4955 -13.7402 5.12361 -1.00486 -1.44651
lowerback -2.10259 -0.489889 0.00070635
upperback 3.14187 -0.724595 1.75319
thorax 4.44154 -0.392808 1.7668
lowerneck -14.3143 0.736681 -1.57379
upperneck 32.1344 1.56398 -0.124191
head 13.1364 0.472831 0.463593
rclavicle -7.10655e-015 4.37326e-015
rhumerus -25.1495 -21.4664 -77.4785
rradius 23.207
rwrist 34.5003
rhand -20.2202 -27.5799
rfingers 7.12502
rthumb 6.12721 -57.4713
lclavicle -7.10655e-015 4.37326e-015
lhumerus -21.5889 2.07036 87.8022
lradius 17.4272
lwrist 1.03881
lhand -25.8159 -5.62018
lfingers 7.12502
lthumb 0.723594 24.3583
rfemur -12.8975 -1.5708 19.287
rtibia 23.8203
rfoot -14.8118 -2.62548
rtoes 8.1827
lfemur -11.234 7.77348 -18.4331
ltibia 21.2127
lfoot -13.0935 4.54181
ltoes 1.9415
108
root 0.557178 17.4955 -13.7417 5.11518 -1.0051 -1.45586
lowerback -2.11029 -0.485696 0.0167064
upperback 3.14085 -0.71995 1.75854
thorax 4.44458 -0.390066 1.76358
lowerneck -14.3101 0.733356 -1.57826
upperneck 32.1412 1.55976 -0.121981
head 13.1384 0.470717 0.464612
rclavicle -1.78906e-015 1.82882e-014
rhumerus -25.1195 -21.4366 -77.4804
rradius 23.1977
rwrist 34.512
rhand -20.2007 -27.603
rfingers 7.12502
rthumb 6.14608 -57.4938
lclavicle -1.78906e-015 1.82882e-014
lhumerus -21.5771 2.02965 87.8208
lradius 17.4378
lwrist 1.07837
lhand -26.0362 -6.13056
lfingers 7.12502
lthumb 0.510798 23.8486
rfemur -12.8818 -1.57692 19.2939
rtibia 23.7996
rfoot -14.8052 -2.61391
rtoes 8.20401
lfemur -11.2333 7.76886 -18.4247
ltibia 21.2204
lfoot -13.0909 4.54602
ltoes 1.94735
109
root 0.557778 17.4958 -13.743 5.10681 -1.00724 -1.46316
lowerback -2.11936 -0.480954 0.0323275
upperback 3.1388 -0.714494 1.76227
thorax 4.44728 -0.386897 1.75894
lowerneck -14.3025 0.729914 -1.58454
upperneck 32.1458 1.555 -0.117452
head 13.1386 0.468495 0.466733
rclavicle -8.44835e-016 -4.77083e-015
rhumerus -25.0942 -21.4041 -77.4837
rradius 23.1895
rwrist 34.5198
rhand -20.1831 -27.6258
rfingers 7.12502
rthumb 6.16308 -57.5161
lclavicle -8.44835e-016 -4.77083e-015
lhumerus -21.5658 1.99515 87.8356
lradius 17.4438
lwrist 1.12037
lhand -26.2136 -6.52546
lfingers 7.12502
lthumb 0.33944 23.454
rfemur -12.8645 -1.58443 19.2981
rtibia 23.7761
rfoot -14.7976 -2.59789
rtoes 8.23428
lfemur -11.2289 7.76261 -18.4186
ltibia 21.2223
lfoot -13.0867 4.55331
ltoes 1.95094
110
root 0.558297 17.4961 -13.7442 5.0979 -1.01234 -1.47098
lowerback -2.13049 -0.475239 0.0487579
upperback 3.13688 -0.707805 1.76613
thorax 4.45125 -0.383094 1.75403
lowerneck -14.2932 0.725871 -1.59245
upperneck 32.1473 1.55027 -0.114409
head 13.1372 0.465928 0.468535
rclavicle 3.926e-015 1.98785e-015
rhumerus -25.0705 -21.3759 -77.4857
rradius 23.1797
rwrist 34.5293
rhand -20.1759 -27.6385
rfingers 7.12502
rthumb 6.17002 -57.5286
lclavicle 3.926e-015 1.98785e-015
lhumerus -21.555 1.96586 87.8482
lradius 17.447
lwrist 1.16358
lhand -26.3302 -6.77201
lfingers 7.12502
lthumb 0.226809 23.2076
rfemur -12.8449 -1.58991 19.3029
rtibia 23.7501
rfoot -14.7875 -2.57999
rtoes 8.27516
lfemur -11.2199 7.75815 -18.4116
ltibia 21.2181
lfoot -13.0799 4.56149
ltoes 1.9555
111
root 0.558686 17.4965 -13.7453 5.08913 -1.01822 -1.47846
lowerback -2.14367 -0.470244 0.0633544
upperback 3.13561 -0.702076 1.77095
thorax 4.45713 -0.379858 1.75108
lowerneck -14.2874 0.723082 -1.59919
upperneck 32.1478 1.54858 -0.115827
head 13.1361 0.464239 0.468875
rclavicle -2.5842e-015 1.98785e-015
rhumerus -25.0452 -21.3436 -77.4894
rradius 23.1703
rwrist 34.5335
rhand -20.1712 -27.6505
rfingers 7.12502
rthumb 6.17457 -57.5405
lclavicle -2.5842e-015 1.98785e-015
lhumerus -21.5439 1.94233 87.8586
lradius 17.4492
lwrist 1.20541
lhand -26.3644 -6.82787
lfingers 7.12502
lthumb 0.193827 23.1518
rfemur -12.8245 -1.59356 19.3076
rtibia 23.7222
rfoot -14.7771 -2.56143
rtoes 8.33236
lfemur -11.2081 7.75594 -18.4045
ltibia 21.2088
lfoot -13.0716 4.56926
ltoes 1.95564
112
root 0.558923 17.4971 -13.7463 5.08138 -1.02543 -1.48534
lowerback -2.15742 -0.465564 0.0748613
upperback 3.13289 -0.696679 1.77715
thorax 4.4619 -0.376906 1.75129
lowerneck -14.2803 0.721495 -1.6077
upperneck 32.1462 1.54957 -0.11862
head 13.1339 0.463354 0.469372
rclavicle 3.97569e-015 -1.11319e-014
rhumerus -25.021 -21.316 -77.4904
rradius 23.1587
rwrist 34.5392
rhand -20.1702 -27.6521
rfingers 7.12502
rthumb 6.17553 -57.5421
lclavicle 3.97569e-015 -1.11319e-014
lhumerus -21.5362 1.92707 87.8671
lradius 17.4514
lwrist 1.23897
lhand -26.356 -6.79286
lfingers 7.12502
lthumb 0.20189 23.1868
rfemur -12.8045 -1.594 19.3124
rtibia 23.6924
rfoot -14.7655 -2.54419
rtoes 8.39216
lfemur -11.1952 7.75609 -18.3977
ltibia 21.1949
lfoot -13.0621 4.5764
ltoes 1.9519
113
root 0.55901 17.4976 -13.7474 5.07609 -1.03268 -1.49052
lowerback -2.17278 -0.462066 0.0825401
upperback 3.1288 -0.692733 1.7843
thorax 4.46626 -0.374815 1.75451
lowerneck -14.2777 0.722441 -1.61152
upperneck 32.1461 1.55521 -0.127925
head 13.1334 0.464166 0.467257
rclavicle -2.98177e-016 -1.59028e-015
rhumerus -24.9948 -21.2962 -77.4889
rradius 23.1427
rwrist 34.5504
rhand -20.1712 -27.6413
rfingers 7.12502
rthumb 6.17454 -57.5313
lclavicle -2.98177e-016 -1.59028e-015
lhumerus -21.5322 1.9152 87.8742
lradius 17.4548
lwrist 1.26302
lhand -26.3412 -6.7486
lfingers 7.12502
lthumb 0.216188 23.231
rfemur -12.7868 -1.59238 19.3162
rtibia 23.6611
rfoot -14.7525 -2.5297
rtoes 8.4451
lfemur -11.1833 7.75702 -18.3924
ltibia 21.177
lfoot -13.0509 4.58161
ltoes 1.95525
114
root 0.558973 17.4983 -13.7484 5.07234 -1.04156 -1.49485
lowerback -2.18865 -0.458226 0.0889084
upperback 3.12363 -0.688254 1.79119
thorax 4.46979 -0.372491 1.75825
lowerneck -14.2783 0.724742 -1.61089
upperneck 32.1473 1.56319 -0.14189
head 13.1341 0.465902 0.462933
rclavicle -5.91384e-015 1.51076e-014
rhumerus -24.9682 -21.2809 -77.4875
rradius 23.1251
rwrist 34.563
rhand -20.1748 -27.6261
rfingers 7.12502
rthumb 6.17108 -57.5163
lclavicle -5.91384e-015 1.51076e-014
lhumerus -21.5308 1.90302 87.8791
lradius 17.459
lwrist 1.27902
lhand -26.3179 -6.70674
lfingers 7.12502
lthumb 0.238703 23.2729
rfemur -12.7708 -1.58967 19.3199
rtibia 23.6284
rfoot -14.7383 -2.51701
rtoes 8.48516
lfemur -11.1704 7.75849 -18.3877
ltibia 21.1548
lfoot -13.0375 4.58839
ltoes 1.95571
115
root 0.558827 17.4989 -13.7494 5.06936 -1.05364 -1.49762
lowerback -2.20305 -0.453588 0.0943011
upperback 3.11607 -0.682564 1.79692
thorax 4.46995 -0.369555 1.7614
lowerneck -14.2817 0.728253 -1.60658
upperneck 32.1526 1.5731 -0.159092
head 13.1373 0.468436 0.45704
rclavicle 6.55989e-015 -1.59028e-014
rhumerus -24.9471 -21.2674 -77.4856
rradius 23.1098
rwrist 34.5753
rhand -20.1786 -27.6124
rfingers 7.12502
rthumb 6.16743 -57.5026
lclavicle 6.55989e-015 -1.59028e-014
lhumerus -21.5339 1.89241 87.8809
lradius 17.4606
lwrist 1.279
lhand -26.2958 -6.67508
lfingers 7.12502
lthumb 0.260072 23.3045
rfemur -12.7569 -1.58627 19.323
rtibia 23.5944
rfoot -14.7207 -2.50884
rtoes 8.47927
lfemur -11.1552 7.76042 -18.3842
ltibia 21.1283
lfoot -13.022 4.59594
ltoes 1.96714
116
root 0.558568 17.4997 -13.7503 5.0673 -1.069 -1.49755
lowerback -2.21621 -0.4482 0.0979922
upperback 3.10636 -0.675679 1.80093
thorax 4.46711 -0.366031 1.76382
lowerneck -14.287 0.73256 -1.59882
upperneck 32.1606 1.58413 -0.178913
head 13.1421 0.471489 0.449719
rclavicle 5.56597e-015 -2.70347e-014
rhumerus -24.9309 -21.2546 -77.4839
rradius 23.0968
rwrist 34.5887
rhand -20.1843 -27.603
rfingers 7.12502
rthumb 6.16192 -57.4933
lclavicle 5.56597e-015 -2.70347e-014
lhumerus -21.5415 1.8751 87.8814
lradius 17.4605
lwrist 1.27614
lhand -26.2986 -6.69328
lfingers 7.12502
lthumb 0.257353 23.2863
rfemur -12.745 -1.58238 19.3239
rtibia 23.5592
rfoot -14.6996 -2.50273
rtoes 8.43852
lfemur -11.1377 7.76399 -18.3835
ltibia 21.0969
lfoot -13.0042 4.60377
ltoes 1.98101
117
root 0.558235 17.5005 -13.751 5.06578 -1.08725 -1.49632
lowerback -2.22849 -0.441938 0.10246
upperback 3.09513 -0.667553 1.8032
thorax 4.46213 -0.361818 1.76409
lowerneck -14.2954 0.738316 -1.58594
upperneck 32.1725 1.59711 -0.202247
head 13.1493 0.475492 0.440472
rclavicle -4.87022e-015 -2.74323e-014
rhumerus -24.9203 -21.2339 -77.4853
rradius 23.089
rwrist 34.5964
rhand -20.1894 -27.6038
rfingers 7.12502
rthumb 6.15695 -57.4943
lclavicle -4.87022e-015 -2.74323e-014
lhumerus -21.5527 1.85319 87.8802
lradius 17.4594
lwrist 1.26795
lhand -26.3056 -6.7217
lfingers 7.12502
lthumb 0.250618 23.2579
rfemur -12.7347 -1.58051 19.3242
rtibia 23.5232
rfoot -14.6757 -2.49649
rtoes 8.36488
lfemur -11.1173 7.76704 -18.3837
ltibia 21.0607
lfoot -12.9852 4.61295
ltoes 1.99703
